<svg version="1" xmlns="http://www.w3.org/2000/svg" viewBox="42.185 0 101.668 83.984"><path fill="#23A9E1" d="M42.185 0l50.581 59.054L143.853 0z"/><path fill="#491213" d="M93.104 0H42.185v22.463l50.582 61.521.338-.424 50.748-60.394V0H93.104zm0 57.05l-.338.41L45.893 1.776h94.418L93.104 57.05z"/><path fill="#491213" d="M92.766 57.46l.338-.41 27.576-32.287c-6.912.949-11.863 6.076-18.604 4.955-3.396-.563-3.498-2.514-4.469-4.455-.746-1.493-1.938-1.303-3.486-1.91-1.443-.564-2.277-1.738-5.162-1.061-2.528.592-2.809 4.518-5.953 4.293-1.688-.121-1.811-2.498-4.244-5.539-6.301-7.571-12.157-6.523-16.245.475L92.766 57.46z"/><path fill="#FFF" d="M65.464 32.248c.513.618.892 1.284.806 2.116-.06.579-.937 1.55-.271 1.847l2.242-2.834c-.602-.151-5.365-5.849-5.441-6.473l-3.159 1.734c.164.66 1.295.005 1.854.046.828.06 1.424.56 1.953 1.151-1.729 1.449-5.932 5.018-6.375 5.09-.227.037-1.089-.601-1.102-.055-.007.262.853 1.014 1.015 1.209.743.885 1.485 1.771 2.229 2.652.619-.281-.108-.73.205-1.242.235-.374 4.904-4.265 6.044-5.241zM60.192 25.269c.442-.095.623.434.957-.056-.814-.974-1.633-1.945-2.447-2.918-.372-.441-.841-.916-.707.019.089.63-6.113 5.664-6.493 5.819-.479.197-.758-.416-1.108.098l2.192 2.607c.246.293.478.612.747.883.339.339.208-.672.225-.586-.092-.512.526-.947.854-1.228 1.544-1.36 5.397-4.588 5.78-4.638zM51.42 24.352c-1.768.523-3.649-.164-4.207-2.042-.543-1.835.614-3.757 2.071-4.802 1.438-1.031 3.589-.969 4.373.838.346.8.157 1.707-.095 2.503-.16.506-.598 1 .057 1.288.859-1.096 1.721-2.189 2.581-3.285-1.056-.633-1.519-1.684-2.301-2.596-.882-1.07-2.063-2.078-3.481-2.283-2.87-.406-5.574 2.556-5.795 5.244-.137 1.457.374 2.849 1.246 4.002.75.994 1.867 1.623 2.436 2.754.262.095 2.704-1.033 3.285-1.256-.052-.111-.089-.275-.17-.365-.761.225 0 0 0 0zM90.721 60.759c-1.15-.768-4.025-4.689-4.574-5.34-.107-.131-.22-.262-.328-.393-.012-.016-.283.225-.246.189-.174.146.135.574-.053.865-.793 1.238-5.759 4.98-6.017 5.162-.555.385-1.164-.158-1.487.314.719.855 2.778 3.543 3.02 3.582.479.078.146-.814.211-1 .123-.369 2.633-2.445 3.549-3.211.336-.281.688.426.888.723.327.484.475 1 .299 1.568-.117.371-.717.92-.25 1.174l2.612-3.049c.253-.293-.565-.037-.469-.086-.371.189-.719.234-1.063-.029-.097-.068-1.088-1.082-.99-1.166.432-.359.959-.963 1.518-1.1.863-.213 1.582 1.516 1.709 2.129a3.462 3.462 0 0 1-.075 1.75c-.123.387-.486.697.018.93.713-.973 1.424-1.943 2.133-2.92a.657.657 0 0 1-.405-.092c-.128-.084.139.071 0 0zM80.496 56.628c2.205-1.855 2.482-5.053.771-7.338-1.867-2.49-5.371-3.097-7.806-1.052-2.203 1.853-2.487 5.046-.758 7.324 1.991 2.621 5.2 2.918 7.793 1.066 1.157-.974-.099.071 0 0zm-.465-4.752c-.646 1.51-2.201 3.062-3.732 3.666-1.817.715-3.1-.826-2.358-2.553.649-1.516 2.203-3.057 3.735-3.666 1.852-.733 3.066.846 2.355 2.553-.38.889.071-.169 0 0zM74.052 42.021c.476.062.927.551 1.269.043-.74-.879-1.482-1.759-2.228-2.638-.596.269.048.55-.194.972-.244.426-2.56.78-3.176.89.225-.644.896-2.615 1.157-2.835.543-.444.884.433 1.283-.141-.916-1.084-1.83-2.17-2.744-3.253-.311-.366-.559-1.028-.979-.68.039-.031.006 1.473-.088 1.731-.086.235-.937 3.64-1.927 4.472-.493.414-2.237 1.934-2.702 2.096-.541.188-.824-.598-1.22-.037l2.49 2.957c.125.148.603.863.768.893.521.096.06-.893.113-1.086.15-.43 2.5-2.719 3.496-2.857 1.462-.208 3.201-.706 4.682-.527.339.042-.351-.043 0 0zM111.391 52.449c.19.648.299 1.332.215 2.01-.107.873-.979 2.924-2.174 2.34-1.168-.574-2.193-1.729-3.188-2.553.803-.936 1.508-1.748 2.854-1.295.37.123.688-.035.299-.262-.404-.234-3.113-1.965-3.261-1.799-.271.311.527.867.222 1.473-.229.447-.609.834-.933 1.219-.721-.607-1.924-1.252-1.057-2.256.541-.66 1.25-1.172 2.098-1.342.564-.113 1.841.389 2.007-.225-1.089-.521-2.173-1.045-3.259-1.564.177.798-3.35 4.523-4.131 5.462-.112.139-.658.609-.664.799-.01.428.621.096.656.084.486-.182 6.816 5.107 6.973 5.471.101.281-.221.574-.028.73-.011-.01.229.217.254.186.391-.469 4.521-5.977 5.373-6.217-.793-1.215-1.588-2.432-2.367-3.652-.59.258-.021.949.111 1.391zM105.229 59.152c-2.076-1.34-5.597 1.279-6.125 1.531-1.039.49-1.789-.543-1.25-1.502.469-.83 1.393-1.234 2.311-1.289.275-.018 1.351.197 1.459.025.129-.203.228-.223.041-.348-.854-.578-1.711-1.154-2.565-1.732-.177 1.057-1.386 1.729-2.076 2.439-.822.855-1.521 1.932-1.521 3.156 0 1.135.679 2.143 1.677 2.66 1.137.592 2.317.117 3.323-.51.627-.393 1.254-.857 1.924-1.172.996-.467 2.306-.062 1.953 1.27-.28 1.074-1.352 2.062-2.403 2.34-.617.164-1.271.109-1.873-.09-.433-.141-.992-.734-1.229-.111 1.16.848 2.32 1.691 3.48 2.537.104-.76.522-1.09 1.086-1.562.735-.646 1.438-1.318 1.994-2.129 1.158-1.693 1.538-4.062-.206-5.513zM105.229 59.152c.926.598-.59-.494 0 0zM134.462 21.838c-.007.004-.007.004 0 0z"/><path fill="#FFF" d="M141.919 19.629c-.729.729-8.42-2.342-8.981-2.765-.289-.116-.299-1.321-.705-.833-.402.488-.81.977-1.215 1.463-.418.506-.838 1.01-1.256 1.514-.261.313-.537.457-.039.72.838-.419 5.418 7.346 5.008 8.461-.726.376-6.914-5.058-7.08-5.415-.053-.146.272-1.021-.211-.945-.229.036-.744.896-.89 1.072l-.889 1.072c.332.484.516-.021.959.042.383.077 1.844 1.331 2.24 1.663-.726.027-2.687.132-2.935.113-.903.112-.422-.662-1.016-.931-.76.922-1.52 1.843-2.277 2.765-.44.535-.885 1.071-1.325 1.606-.054.065-.047.032.051.112.33.272.104.168.567.006.507-.178 6.56 4.931 6.775 5.189.377.45-.154.976.412 1.221.6-.728 1.197-1.457 1.797-2.184.092-.109.141-.1.021-.197-.429-.354-.478.211-1.002.153-.533-.089-4.396-3.368-5.896-4.61l8.197-.304c.301-.011 1.141.896 1.067 1.216-.079.379-.463.559.056.795.479-.576.983-1.149 1.455-1.734l.229-.282a.737.737 0 0 0 .209-.265l.168-.211c.426-.485 1.801-2.006 1.635-2.15-.461-.4-.684.466-1.297-.054-.348-.249-1.223-1.788-1.442-2.162-.265-.449.606-.897.963-1.119.776-.481 3.248-1.183 3.481.349.041.258-.271.549-.084.703.045.037.205.242.271.163.164-.196 2.36-2.843 3.301-3.969-.094-.082-.204-.223-.322-.268zm-7.373 2.155c.077-.049.153-.097 0 0l-.084.054c.015-.008.047-.029.082-.051a5.723 5.723 0 0 0-.959.76l-1.563-2.692c1.178.491 2.354.985 3.524 1.481-.354.098-.69.252-1 .448zM124.8 32.996c-2.375-1.979-5.629-1.404-7.586.831-1.901 2.312-1.711 5.664.605 7.615 2.34 1.926 5.67 1.438 7.572-.847 1.9-2.302 1.769-5.667-.591-7.599zm-.28 6.613c-.019.02-.023.025-.025.025-1.231 1.293-3.356.098-4.506-.73-1.146-.828-3.109-2.568-1.855-4.104 1.058-1.287 3.125-.231 4.191.481 1.199.804 3.412 2.597 2.275 4.216.073-.089.127-.144-.08.112z"/><path fill="#FFF" d="M124.8 32.996c1.173.959-.252-.212 0 0zM124.492 39.637l.025-.026c.028-.037.057-.073.08-.11a2.226 2.226 0 0 0-.105.136zM118.208 42.119c.111.094.273.225-.062-.057-2.836-2.127-6.193-1.504-8.402 1.156-.988 1.188-1.977 2.379-2.961 3.566.352.512.764-.117 1.273.176.436.25 6.243 5.101 6.338 5.365.164.459-.254.549.145.875.172.145 4.537-5.244 4.937-6.189.688-1.753.138-3.677-1.268-4.892zm-1.317 6.754c-.24.297-.043.055-.664.65-.308.293-6.438-4.675-6.191-4.943.834-.918 2.566-1.557 3.576-1.299 2.188.561 5.212 3.262 3.279 5.592z"/><path fill="#491213" d="M92.765 57.477l.339-.409L120.68 24.78c-6.913.949-11.864 6.077-18.604 4.956-3.396-.564-3.498-2.514-4.47-4.456-.746-1.493-1.937-1.303-3.486-1.91-1.442-.565-2.277-1.738-5.162-1.061-2.528.593-2.808 4.518-5.952 4.293-1.689-.121-1.812-2.497-4.244-5.539-6.302-7.571-12.158-6.523-16.247.475l30.25 35.939z"/><g><path fill="#23A9E1" d="M88.745 70.916l4.02-6.5 4.004 6.5-4.004 6.514z"/></g><g><path fill="#FFF" d="M65.464 32.265c.513.618.891 1.284.806 2.116-.059.579-.936 1.55-.27 1.846l2.242-2.834c-.603-.151-5.365-5.848-5.442-6.472l-3.159 1.734c.164.661 1.294.005 1.854.046.828.06 1.425.56 1.953 1.152-1.729 1.449-5.932 5.017-6.374 5.09-.227.036-1.089-.601-1.102-.056-.006.262.853 1.014 1.015 1.21l2.229 2.653c.619-.282-.11-.732.205-1.243.233-.374 4.902-4.267 6.043-5.242zM60.191 25.285c.443-.095.624.434.958-.056-.815-.973-1.633-1.945-2.448-2.917-.371-.442-.841-.916-.706.018.089.63-6.113 5.664-6.493 5.82-.479.197-.758-.417-1.109.097l2.193 2.608c.246.292.477.612.747.882.339.339.208-.672.224-.585-.091-.513.527-.948.855-1.228 1.544-1.361 5.397-4.588 5.779-4.639zM51.42 24.368c-1.768.523-3.65-.164-4.207-2.042-.543-1.835.614-3.757 2.071-4.801 1.438-1.032 3.589-.97 4.373.838.346.799.157 1.706-.095 2.502-.16.506-.597 1 .057 1.289.859-1.096 1.721-2.19 2.581-3.286-1.056-.633-1.519-1.683-2.301-2.595-.882-1.071-2.063-2.079-3.481-2.284-2.87-.406-5.574 2.556-5.795 5.245-.137 1.457.374 2.848 1.246 4.001.75.994 1.867 1.623 2.435 2.754.262.095 2.705-1.033 3.286-1.255-.052-.111-.089-.275-.17-.366-.761.226 0 0 0 0zM90.72 60.777c-1.15-.768-4.025-4.689-4.573-5.341-.107-.13-.219-.261-.329-.392-.011-.015-.283.225-.246.19-.173.146.135.573-.052.864-.793 1.24-5.758 4.982-6.016 5.163-.556.384-1.164-.159-1.489.315.719.854 2.78 3.543 3.02 3.582.479.078.147-.814.211-1 .123-.369 2.633-2.445 3.549-3.211.336-.281.688.426.888.723.327.484.475 1 .298 1.568-.116.37-.717.92-.25 1.174l2.613-3.049c.252-.293-.566-.037-.469-.087-.37.19-.719.235-1.063-.028-.096-.07-1.089-1.082-.99-1.166.432-.36.959-.963 1.518-1.1.862-.213 1.582 1.516 1.709 2.129a3.45 3.45 0 0 1-.076 1.75c-.124.387-.487.696.018.93.713-.974 1.423-1.945 2.132-2.92a.695.695 0 0 1-.403-.094c-.127-.085.139.07 0 0zM80.496 56.646c2.205-1.855 2.481-5.053.769-7.339-1.867-2.489-5.371-3.096-7.804-1.052-2.204 1.854-2.489 5.047-.758 7.325 1.991 2.621 5.199 2.918 7.793 1.066 1.156-.975-.099.07 0 0zm-.465-4.753c-.647 1.51-2.201 3.063-3.732 3.667-1.818.715-3.1-.827-2.36-2.553.65-1.516 2.203-3.057 3.737-3.666 1.852-.735 3.066.846 2.355 2.552-.381.89.071-.169 0 0zM74.052 42.037c.475.06.926.55 1.269.042a1300.17 1300.17 0 0 0-2.228-2.637c-.595.269.047.549-.194.971-.244.427-2.56.781-3.176.89.224-.644.896-2.615 1.157-2.835.544-.445.883.432 1.283-.141l-2.743-3.253c-.311-.366-.56-1.028-.98-.68.038-.031.006 1.472-.089 1.733-.086.236-.936 3.638-1.926 4.47-.493.414-2.237 1.934-2.702 2.097-.541.189-.825-.598-1.22-.038l2.491 2.957c.125.148.602.863.767.893.521.094.06-.893.113-1.086.15-.431 2.5-2.719 3.497-2.859 1.461-.205 3.2-.702 4.681-.524.339.042-.352-.043 0 0z"/></g><g><path fill="#DC6243" d="M67.792 22.874c-4.043-.167-2.352-3.954.395-4.808 2.611-.813 8.089 1.717 9.843 3.398-2.782.855-6.386.732-9.446.874-.227-3.12-.959-2.032-.792.536z"/></g><g><path fill="#DC6243" d="M68.807 27.724c-2.04-1.579-1.396-5.266 1.763-4.146 4.005 2.084-.856 3.239-1.763 4.146 0 0 .042-.042 0 0z"/></g><g><path fill="#DC6243" d="M77.295 35.423c-8.62-.071-2.792-13.322.141-12.521 3.373 1.073 2.995 12.622-.141 12.521z"/></g><g><path fill="#DC6243" d="M83.401 31.094c-.84 2.501-2.36 2.968-2.191-.07.193-3.503 2.479-2.662 4.93-4.004 2.04-1.119 3.139-5.214 6.641-2.765 1.562 1.093 3.353.179 3.852 1.833-.025-.084-4.545 10.308-2.031 10.308-4.961 0-2.772-5.922-.874-9.899-1.847.885-4.842 6.688-2.382 7.643-1.281 1.686-5.194 3.945-7.234 2.298-1.554-1.249-.694-3.325-.711-5.344z"/></g><g><path fill="#DC6243" d="M87.505 40.697c-3.489 1.046-8.122-1.207-2.51-2.34 3.483-.704 7.187.778 2.51 2.34.141-.042-.128.043 0 0z"/></g><g><path fill="#DC6243" d="M91.875 40.556c-.736-1.658.562-3.635 2.68-2.199 1.847 1.252-.851 3.106-2.68 2.199z"/></g><g><path fill="#DC6243" d="M88.929 45.224c-2.411-.747-10.537-.561-5.218-2.764 1.64-.679 10.154.098 5.218 2.764z"/></g><g><path fill="#DC6243" d="M92.144 44.871c-.007-.96-.512-2.679 1.354-1.946 2.235.879-1.354 2.651-1.354 1.946 0 0 0-.169 0 0z"/></g><g><path fill="#DC6243" d="M99.363 48.538c-1.437-1.227-2.891-1.295-4.229 0-1.795-3.293-8.318-2.19-11.366-2.651 1.638 4.029 14.864 4.78 15.595 2.651z"/></g><g><path fill="#DC6243" d="M97.46 50.962c-3.151-.146-6.671-.563-9.646.084 1.86.466 6.396 1.795 2.172 2.918 1.516 2.168 3.974 2.029 5.584.127-.654-.322-1.01-.719-1.552-1.057 1.672-.303 3.234-1.267 3.442-2.072z"/></g><g><path fill="#DC6243" d="M101.056 47.085c-5.288-3.112-3.95-5.427.354-7.586 2.254-1.131 7.323-5.208 9.446-3.85l-9.8 11.436z"/></g><g><path fill="#F49774" d="M97.291 39.809c-4.479-4.601 6.688-4.178 8.486-5.796 1.312.437 10.769-8.283 13.071-7.741-1.655 1.941-5.22 8.136-7.774 8.136-1.965 0-3.95-.292-5.473 1.107-2.223 2.048-5.907 3.09-8.31 4.294z"/></g><g><path fill="#F4B1A4" d="M98.758 34.183c-2.453 1.319-4.772-3.907-.537-3.398 2.813.338 5.662-.237 8.348.226-1.927 2.291-4.706 3.553-7.811 3.172z"/></g><g><path fill="#FFF" d="M111.39 52.466c.191.648.299 1.332.215 2.009-.106.873-.979 2.925-2.173 2.34-1.169-.573-2.194-1.728-3.188-2.552.802-.936 1.507-1.749 2.854-1.295.37.123.688-.036.299-.262-.404-.234-3.113-1.965-3.261-1.799-.271.311.528.867.221 1.473-.229.447-.609.834-.932 1.219-.72-.607-1.923-1.253-1.057-2.256.542-.66 1.25-1.172 2.098-1.342.565-.114 1.841.389 2.006-.225-1.087-.521-2.172-1.044-3.258-1.565.177.799-3.349 4.525-4.131 5.463-.113.138-.658.609-.664.798-.009.429.622.097.657.084.485-.181 6.815 5.108 6.973 5.471.1.281-.221.574-.029.731-.011-.01.229.217.253.185.392-.468 4.522-5.976 5.374-6.217a436.347 436.347 0 0 1-2.368-3.651c-.59.258-.019.949.111 1.391zM105.229 59.169c-2.077-1.34-5.596 1.279-6.125 1.531-1.039.491-1.789-.543-1.251-1.502.469-.83 1.394-1.234 2.311-1.289.276-.018 1.35.197 1.459.025.13-.202.228-.221.042-.346l-2.567-1.733c-.176 1.056-1.385 1.728-2.076 2.44-.822.854-1.52 1.931-1.52 3.156 0 1.135.679 2.143 1.677 2.66 1.136.592 2.317.116 3.324-.511.627-.392 1.254-.856 1.924-1.171.996-.467 2.304-.062 1.953 1.27-.282 1.073-1.352 2.062-2.405 2.34-.616.164-1.27.109-1.872-.09-.432-.142-.993-.734-1.229-.111l3.481 2.537c.104-.76.522-1.09 1.086-1.563.735-.646 1.438-1.319 1.994-2.13 1.158-1.692 1.537-4.061-.206-5.513z"/><path fill="#FFF" d="M105.229 59.169c.925.598-.591-.494 0 0zM134.462 21.855c-.007.004-.007.004 0 0z"/><path fill="#FFF" d="M141.92 19.645c-.729.729-8.42-2.341-8.982-2.764-.29-.116-.3-1.321-.705-.833-.403.488-.81.976-1.216 1.463l-1.256 1.513c-.26.314-.537.458-.038.72.837-.419 5.417 7.346 5.008 8.461-.725.376-6.915-5.057-7.081-5.415-.052-.146.273-1.021-.211-.945-.229.036-.743.896-.889 1.072l-.889 1.072c.332.485.517-.021.959.042.383.077 1.844 1.331 2.24 1.664-.725.027-2.685.131-2.934.113-.903.112-.422-.663-1.015-.931-.76.922-1.521 1.843-2.277 2.764l-1.326 1.607c-.054.065-.047.032.05.112.33.273.104.168.568.006.506-.177 6.559 4.931 6.776 5.19.377.45-.154.975.411 1.221.6-.728 1.197-1.457 1.798-2.184.091-.11.141-.1.021-.198-.427-.353-.476.212-1.002.154-.533-.089-4.395-3.369-5.895-4.61l8.198-.304c.301-.011 1.14.896 1.068 1.216-.081.378-.463.558.054.794.479-.575.985-1.149 1.456-1.734l.228-.282a.74.74 0 0 0 .21-.265l.168-.211c.425-.485 1.8-2.006 1.635-2.15-.461-.4-.685.466-1.298-.054-.348-.249-1.223-1.788-1.443-2.162-.264-.449.608-.897.964-1.119.776-.482 3.247-1.183 3.482.348.04.258-.271.55-.084.704.044.037.204.242.27.163.163-.197 2.361-2.843 3.301-3.969-.098-.082-.207-.224-.324-.269zm-7.374 2.156c.077-.049.153-.098 0 0a2.533 2.533 0 0 0-.084.054l.082-.052c-.345.22-.668.473-.958.761-.521-.897-1.044-1.795-1.564-2.693 1.178.491 2.353.985 3.524 1.481a3.735 3.735 0 0 0-1 .449zM124.801 33.012c-2.375-1.979-5.63-1.404-7.586.832-1.903 2.312-1.712 5.663.604 7.615 2.34 1.926 5.671 1.438 7.572-.846 1.899-2.303 1.769-5.668-.59-7.601zm-.281 6.614l-.025.027c-1.232 1.292-3.358.096-4.506-.731-1.146-.829-3.11-2.57-1.855-4.104 1.056-1.287 3.124-.231 4.191.482 1.199.803 3.411 2.596 2.275 4.216.074-.09.126-.148-.08.11z"/><path fill="#FFF" d="M124.801 33.012c1.171.959-.253-.211 0 0zM124.492 39.653l.025-.027c.029-.037.057-.073.08-.11-.048.061-.109.137-.105.137zM118.209 42.136c.111.094.272.224-.063-.057-2.835-2.127-6.193-1.504-8.401 1.157-.988 1.189-1.977 2.378-2.961 3.567.351.512.763-.118 1.272.176.437.25 6.244 5.101 6.339 5.366.164.458-.255.548.145.875.172.143 4.536-5.245 4.935-6.191.689-1.755.139-3.678-1.266-4.893zm-1.318 6.754c-.24.296-.044.054-.665.65-.306.293-6.438-4.675-6.191-4.944.835-.918 2.566-1.556 3.576-1.297 2.19.56 5.213 3.26 3.28 5.591z"/></g></svg>