<svg xmlns="http://www.w3.org/2000/svg" viewBox="0 0 459.754 350.074"><path d="M165.422 70l-.203.23c-1.354 1.47-3.023 2.188-4.522 2.217l2.822-4.865c1.813-3.14.144-6.104-2.68-6.104-2.302 0-4.087.92-5.814 3.916l-1.468 2.562-1.227 2.098-.153.177c-2.16 2.507-4.262 4.492-5.586 4.492-.66 0-1.036-.46-.345-1.64l6.422-11.202h2.446l.864-1.44H153.5l2.822-4.893h-2.994l-2.822 4.895H147.8l-.865 1.44h2.735l-6.02 10.423c-1.266 2.217-.373 4.262 2.045 4.262 1.74 0 3.662-1.31 5.512-3.084-.006 3.816 5.297 4.562 8.54.463h.66c1.785 0 4.606-1.094 6.134-2.907-.198-.406-.715-.866-1.118-1.04zm-6.392.204h-.145c-.98 0-1.756.806-1.756 1.785 0 .372.114.72.288 1.008l-.03.057c-1.41 2.42-4.837 1.958-3.052-1.15l2.274-3.945 1.44-2.447c2.102-3.57 4.98-2.16 3.166.95l-2.186 3.74zM206.877 70l-.2.23c-2.16 2.506-4.925 4.49-7.026 4.49-1.843 0-2.937-1.15-1.554-3.568l.287-.52c1.93.807 5.558.432 7.804-3.455l.432-.75c1.61-2.763.057-4.836-2.39-4.836-2.42 0-4.35 1.27-5.616 3.456l-2.906 4.984-.173.2c-2.16 2.503-4.26 4.49-5.586 4.49-.662 0-1.037-.462-.347-1.642l4.32-7.57c1.294-2.275.058-3.917-1.613-3.917-1.296 0-2.68.72-4.175 2.275l4.78-8.32h-2.995l-8.354 14.492-.168.19c-2.16 2.507-4.26 4.492-5.586 4.492-.662 0-1.037-.462-.345-1.642l6.42-11.2h2.447l.864-1.44h-2.476l2.822-4.894h-2.994l-2.822 4.895h-2.706l-.864 1.44h2.735l-6.02 10.422c-1.266 2.217-.372 4.262 2.046 4.262 1.212 0 2.516-.64 3.82-1.627l-.77 1.338h3.02l4.55-7.916c4.607-5.79 6.65-5.04 5.355-2.823l-3.888 6.767c-1.267 2.218-.373 4.263 2.045 4.263 1.78 0 3.757-1.375 5.646-3.217.145 1.864 1.653 3.217 4.055 3.217 3.396 0 6.766-2.65 9.242-5.53-.196-.403-.714-.863-1.118-1.036zm-5.7-4.203c1.728-2.965 4.78-2.477 2.995.634l-.433.75c-1.44 2.447-3.37 2.39-4.492 1.987l1.928-3.37zM316.047 70l-.2.23a18.789 18.789 0 0 1-3.602 3.254c.95-2.85.75-7.228 2.593-11.057l-2.246-1.21c-1.238 1.7-3.944 5.616-6.65 8.783l-.2.23c-2.16 2.506-4.262 4.49-5.587 4.49-.662 0-1.036-.46-.345-1.64l6.392-11.2h-2.994l-5.326 9.3c-2.274 2.07-4.03 3.224-4.606 2.964-.75-.315 0-1.438.374-2.072l5.845-10.192H296.5l-4.695 8.124-.197.227c-1.354 1.47-3.023 2.19-4.52 2.218l2.82-4.865c1.813-3.14.146-6.104-2.678-6.104-2.304 0-4.09.92-5.815 3.915l-1.47 2.562-1.226 2.097-.155.178c-2.16 2.506-4.924 4.49-7.025 4.49-1.843 0-2.938-1.15-1.555-3.568l.288-.52c1.93.807 5.558.432 7.803-3.455l.433-.75c1.61-2.764.057-4.837-2.392-4.837-2.42 0-4.348 1.268-5.615 3.455l-2.904 4.984-.175.2c-2.477 2.85-4.606 4.69-6.97 5.698l6.71-11.46h-1.757c0-1.237-1.267-2.878-3.138-2.878-1.612 0-3.858 1.268-5.126 3.455l-2.87 4.957c-.003 0-.006-.003-.008-.004l-.2.23c-2.16 2.504-4.263 4.49-5.587 4.49-.663 0-1.037-.46-.347-1.64l2.994-5.242c1.036-1.813.547-2.88-.433-4.06l-1.67-2.017c-.433-.546-.433-1.15.173-1.727l-1.555-1.7c-1.7 1.526-1.844 3.226-.777 4.608l.26.347c-1.324 1.872-3.11 4.404-5.068 6.71l.002.003-.2.23c-1.355 1.466-3.023 2.187-4.522 2.216l2.82-4.866c1.814-3.138.145-6.104-2.678-6.104-2.303 0-4.088.922-5.814 3.916l-1.47 2.562-1.228 2.1-.152.176c-2.477 2.85-4.607 4.69-6.97 5.7l6.71-11.46H226.8c0-1.238-1.267-2.88-3.14-2.88-1.61 0-3.856 1.27-5.124 3.456l-4.203 7.256c-1.268 2.217-.375 4.262 2.043 4.262.836 0 1.844-.375 2.852-1.008l-.835 1.41c-4.03 1.238-6.565 2.88-6.565 5.125 0 2.88 4.405 3.485 6.565-.2l2.274-3.945c2.396-.746 4.743-2.155 7.18-4.48-.02 3.83 5.294 4.584 8.54.478h.66c1.786 0 4.608-1.094 6.134-2.908 1.44-1.67 2.563-3.168 4.952-6.42l.402.49c.374.49.52 1.094.174 1.698l-3.168 5.5c-1.268 2.218-.375 4.263 2.045 4.263 1.518 0 3.176-.998 4.8-2.43-.048 1.39.88 2.43 2.6 2.43.834 0 1.842-.375 2.85-1.01l-.835 1.41c-4.03 1.238-6.563 2.88-6.563 5.125 0 2.88 4.405 3.484 6.563-.2l2.274-3.944c2.44-.762 4.83-2.215 7.315-4.617.132 1.874 1.645 3.235 4.056 3.235 2.438 0 4.86-1.367 6.947-3.2-.117 3.92 5.267 4.72 8.54.58h.663c.938 0 2.158-.31 3.33-.857-.806 2.08-.063 3.478 1.65 3.478 1.64 0 3.482-1.498 4.922-2.88-.288 1.612.662 2.88 2.562 2.88 2.477 0 5.326-2.648 7.804-5.528 1.696-1.96 3.194-4.06 4.26-5.47-1.18 3.108-.548 8.694-3.397 8.694-1.008 0-1.41-1.094-1.41-1.094l-1.872.98s.547 2.42 3.282 2.42c.287 0 .548-.03.834-.06.03 0 .06-.03.09-.03 3.05-.4 6.073-2.82 8.32-5.44-.173-.46-.692-.922-1.123-1.037zm-42.983-4.203c1.728-2.965 4.778-2.477 2.993.634l-.432.75c-1.44 2.447-3.37 2.39-4.492 1.987l1.93-3.37zm-57.177 15.606c-.633 1.123-1.64.95-1.64.145 0-.777.72-1.67 2.993-2.562l-1.353 2.417zm1.383-6.68c-.662 0-1.037-.46-.346-1.64l4.176-7.286c1.61-2.793 4.81-2.073 3.34.634l-2.273 3.975c-1.816 2.908-3.63 4.318-4.897 4.318zm18.397-4.52h-.145c-.98 0-1.756.807-1.756 1.786 0 .372.115.72.287 1.008l-.028.057c-1.41 2.42-4.837 1.958-3.052-1.15l2.273-3.945 1.44-2.447c2.103-3.57 4.98-2.16 3.167.95l-2.186 3.74zm18.827 11.2c-.634 1.123-1.642.95-1.642.145 0-.777.72-1.67 2.994-2.562l-1.352 2.417zm1.38-6.68c-.66 0-1.034-.46-.345-1.64l4.175-7.286c1.612-2.793 4.81-2.073 3.34.634l-2.274 3.975c-1.812 2.908-3.63 4.318-4.895 4.318zm29.54-4.52h-.144c-.98 0-1.756.807-1.756 1.786 0 .372.115.72.287 1.008l-.027.057c-1.41 2.42-4.837 1.958-3.052-1.15l2.274-3.945 1.44-2.447c2.102-3.57 4.98-2.16 3.167.95l-2.185 3.74zM101.422 66.823h28.918v1.957h-28.918zm227 0h28.918v1.957h-28.918z" fill="#766458"/><path d="M163.183 0h7.707l-1.21 44.918h-14.524l-1.975-18.545-1.974 18.545h-14.59L135.472 0h7.646l.637 37.152h.828L149.36 0h7.58l4.906 37.152h.765L163.184 0zm31.851 37.152v7.766h-20.896V0h20.896v7.7h-13.25v10.844h10.574v7.7h-10.575v10.908h13.25zm21.339 0v7.766H198.09V0h7.646v37.152h10.637zm16.244-8.792l7.708-1.796v13.604c0 2.567-2.166 4.75-4.714 4.75h-11.468c-2.61 0-4.713-2.183-4.713-4.75V4.748c0-2.628 2.1-4.748 4.71-4.748h11.468c2.548 0 4.714 2.117 4.714 4.75v9.11l-7.708 1.797V7.7h-5.543v29.452h5.543v-8.79zM261.09 0c2.548 0 4.714 2.117 4.714 4.75v35.42c0 2.566-2.166 4.748-4.715 4.748h-11.47c-2.61 0-4.713-2.182-4.713-4.75V4.75c0-2.63 2.104-4.748 4.714-4.748h11.47zm-2.995 7.7h-5.543v29.452h5.543V7.7zM290.837 0h7.58v44.918h-7.645V22.844l-3.06 11.422h-7.452l-2.994-11.422v22.074h-7.646V0h7.58l6.817 21.688L290.837 0zm32.297 37.152v7.766h-20.896V0h20.896v7.7h-13.252v10.844h10.575v7.7h-10.575v10.908h13.252z" fill="#81B3D3"/><path d="M44.467 157.61c-3.572-2.98-8.14-4.963-12.902-4.963-3.572 0-8.338 2.084-8.338 6.253 0 4.368 5.26 6.055 8.636 7.146l4.964 1.49c10.422 3.076 18.46 8.336 18.46 20.446 0 7.445-1.786 15.088-7.74 20.15-5.856 4.963-13.698 7.047-21.24 7.047-9.43 0-18.662-3.177-26.306-8.538l8.34-15.682c4.864 4.268 10.62 7.742 17.27 7.742 4.566 0 9.43-2.283 9.43-7.545 0-5.46-7.643-7.344-11.812-8.535-12.208-3.475-20.25-6.65-20.25-21.143 0-15.19 10.82-25.113 25.808-25.113 7.543 0 16.775 2.382 23.426 6.154l-7.745 15.09zm47.365-2.78v12.507h21.937v16.48H91.83v12.9h23.127v16.478H72.376v-74.84h42.582v16.477H91.83zm37.586-16.476h27.594c20.844 0 38.016 16.377 38.016 37.42 0 21.04-17.27 37.42-38.016 37.42h-27.594v-74.84zm19.455 58.364h4.367c11.612 0 21.54-6.352 21.54-20.943 0-13.4-8.835-20.943-21.342-20.943h-4.565v41.886zm138.001-22.333c0 24.22-17.37 41.292-41.393 41.292-24.02 0-41.39-17.072-41.39-41.292 0-22.632 19.852-38.513 41.39-38.513s41.394 15.88 41.394 38.513zm-62.534.1c0 12.903 9.53 22.332 21.14 22.332 11.614 0 21.144-9.43 21.144-22.333 0-10.323-9.527-19.752-21.143-19.752-11.612 0-21.14 9.43-21.14 19.752zm72.9-36.131h19.454l35.635 45.758h.196v-45.758h19.453v74.84h-19.454l-35.635-45.857h-.196v45.857H297.24v-74.84zm110.106 61.838l-5.16 13.002H381.54l28.785-74.84h21.242l28.188 74.84H439.01l-4.863-13.002h-26.8zm13.6-38.71h-.2l-8.038 23.822h16.178l-7.94-23.823z" fill="#FFF"/><g fill="#FFF"><path d="M108.08 287.74c7.66-2.588 8.243-12.18.694-12.18-2.08 0-4.56 1.46-6.272 4.45L92.29 297.66c-.475.84-.947 1.532-1.458 2.15-2.626-3.61-1.86-9.006 1.823-11.377l-1.532-1.934c-7.95 5.068-5.616 19.692 7.66 19.692 11.34.002 16.592-13.6 9.298-18.45zm-9.37 15.536c-2.262 0-4.05-.51-5.47-1.312.655-.767 1.31-1.715 1.895-2.7l6.38-11.05 1.022.11c8.9 1.86 5.362 14.952-3.828 14.952zm4.083-17.286l3.063-5.25c2.77-4.777 6.31-1.97 4.412 1.603-1.456 2.735-3.61 3.574-7.475 3.647z"/><path d="M140.16 300.002c-.628 2.248.573 4.076 3.147 4.076 1.53 0 3.428-.984 5.25-2.48.184 1.46 1.35 2.48 3.283 2.48 2.02 0 4.234-1.395 6.393-3.357-.42 2.05.54 3.358 2.41 3.358 2.08 0 4.414-1.896 6.236-3.646-.366 2.042.84 3.646 3.245 3.646 3.137 0 6.747-3.354 9.883-7.002-.025-.05-.068-.102-.1-.15 2.096-2.44 3.945-5.027 5.268-6.778-1.496 3.938-.693 11.014-4.305 11.014-1.274 0-1.786-1.386-1.786-1.386l-2.37 1.24s.692 3.062 4.156 3.062c.365 0 .692-.037 1.058-.072.037 0 .073-.036.11-.036 2.785-.368 5.55-2.064 7.942-4.225.058 2.495 1.994 4.333 5.145 4.333 4.303 0 8.57-3.354 11.707-7.002-.255-.51-.912-1.094-1.422-1.312l-.255.292c-2.735 3.172-6.236 5.688-8.897 5.688-2.334 0-3.72-1.46-1.97-4.52l.365-.658c2.442 1.02 7.038.547 9.883-4.376l.547-.948c2.042-3.5.073-6.127-3.026-6.127-3.063 0-5.508 1.605-7.11 4.376l-3.685 6.32c-.035-.013-.07-.038-.104-.047l-.255.292a23.646 23.646 0 0 1-4.56 4.12c1.204-3.61.95-9.152 3.283-14.003l-2.844-1.532c-1.568 2.15-4.996 7.11-8.425 11.123.033.046.074.09.11.138l-.135.155c-2.735 3.172-5.397 5.688-7.075 5.688-.838 0-1.312-.583-.438-2.08l8.095-14.186h-3.793l-6.747 11.78c-2.88 2.625-5.104 4.083-5.835 3.755-.947-.4 0-1.823.475-2.625l7.402-12.91h-3.793l-6.036 10.446c-.098-.06-.196-.123-.288-.162l-.255.293c-2.735 3.172-5.397 5.688-7.075 5.688-.838 0-1.312-.582-.438-2.078l6.127-10.722h-2.153c.146-1.605-1.494-3.83-3.975-3.83-2.042 0-4.887 1.605-6.49 4.376l-3.847 6.637a2.894 2.894 0 0 0-.577-.364l-.255.29c-2.735 3.173-6.236 5.69-8.897 5.69-2.334 0-3.72-1.46-1.97-4.522l3.9-6.783c2.19-3.756 6.055-3.136 3.792.802l-.547.948h3.102l.547-.948c2.04-3.5.072-6.127-3.027-6.127-3.063 0-5.508 1.605-7.11 4.376l-3.77 6.467a2.43 2.43 0 0 0-.35-.194l-.254.29c-2.736 3.173-6.237 5.69-8.898 5.69-2.335 0-3.72-1.46-1.97-4.522l.364-.657c2.443 1.022 7.04.548 9.883-4.375l.546-.948c2.042-3.5.073-6.127-3.027-6.127-3.063 0-5.508 1.605-7.11 4.376l-3.977 6.82c-2.37 4.047-.328 7.767 4.157 7.767 3.34 0 6.657-2.023 9.442-4.635-.098 2.646 1.865 4.635 5.14 4.635 3.1.005 6.177-1.735 8.83-4.07zm58.03-9.563c2.188-3.757 6.054-3.137 3.79.8l-.546.95c-1.822 3.1-4.267 3.026-5.688 2.515l2.444-4.266zM144 299.665l5.287-9.227c2.042-3.54 6.09-2.627 4.23.8l-2.954 5.18c-2.297 3.61-4.56 5.324-6.127 5.324-.837 0-1.312-.583-.437-2.078zm-24.185-9.227c2.188-3.757 6.054-3.137 3.79.8l-.546.95c-1.823 3.1-4.268 3.026-5.69 2.515l2.445-4.266zm128.585 13.64c4.302 0 8.57-3.354 11.705-7.002-.254-.51-.91-1.094-1.422-1.312l-.254.292c-2.737 3.172-6.237 5.688-8.9 5.688-2.334 0-3.72-1.46-1.97-4.52l.364-.658c2.444 1.02 7.038.547 9.883-4.376l.547-.948c2.043-3.5.074-6.127-3.027-6.127-3.06 0-5.505 1.605-7.11 4.376l-3.693 6.337c-.037-.02-.077-.048-.113-.063l-.255.292c-2.734 3.172-5.396 5.688-7.074 5.688-.838 0-1.31-.583-.437-2.08l5.47-9.59c1.642-2.88.073-4.96-2.042-4.96-1.642 0-3.392.912-5.287 2.88l6.054-10.54h-3.793l-10.697 18.56a2.592 2.592 0 0 0-.434-.25l-.256.292c-2.735 3.172-5.396 5.688-7.075 5.688-.838 0-1.312-.583-.438-2.08l8.133-14.186h3.1l1.096-1.823h-3.137l3.574-6.2h-3.793l-3.574 6.2h-3.428l-1.094 1.823h3.464l-7.622 13.204c-1.604 2.808-.474 5.396 2.59 5.396 1.884 0 3.94-1.216 5.96-2.975l-1.503 2.61h3.83l5.76-10.03c5.836-7.33 8.426-6.38 6.784-3.573l-4.923 8.57c-1.603 2.81-.474 5.397 2.59 5.397 2.305 0 4.864-1.812 7.304-4.22.11 2.44 2.04 4.22 5.145 4.22zm3.062-13.64c2.188-3.755 6.055-3.135 3.793.803l-.547.95c-1.824 3.1-4.268 3.026-5.69 2.515l2.444-4.266zm111.955 5.327l-.256.292c-2.73 3.172-5.395 5.688-7.073 5.688-.838 0-1.312-.583-.438-2.08l12.837-22.208h-3.793l-5.58 9.628c-.656-1.058-1.896-1.97-3.465-1.97-2.044 0-4.888 1.605-6.493 4.376l-3.71 6.407c-.08-.047-.163-.1-.237-.133l-.256.292c-2.734 3.172-5.396 5.688-7.074 5.688-.84 0-1.312-.583-.438-2.08l5.47-9.59c1.642-2.88.073-4.96-2.042-4.96-1.643 0-3.355.875-5.252 2.845l1.422-2.48h-3.793l-6.06 10.487a2.638 2.638 0 0 0-.362-.203l-.256.292c-2.735 3.172-5.397 5.688-7.075 5.688-.838 0-1.312-.583-.438-2.08l6.127-10.72h-2.152c.146-1.605-1.494-3.83-3.975-3.83-2.043 0-4.89 1.604-6.492 4.375l-3.666 6.328-.208.235c-2.734 3.172-5.396 5.688-7.074 5.688-.838 0-1.312-.582-.438-2.078l3.793-6.637c1.312-2.298.69-3.646-.547-5.142l-2.115-2.554c-.546-.693-.546-1.46.22-2.19l-1.97-2.15c-2.15 1.934-2.333 4.084-.985 5.835l.33.438c-1.678 2.37-3.94 5.58-6.42 8.497.074.107.164.215.258.32-3.125 3.594-5.78 5.92-8.762 7.192l4.813-8.242H286l-.4.657c-2.006 3.537-4.305 6.054-7.258 6.054-2.59 0-3.062-2.588-.803-6.454l1.058-1.86c.69.11 1.387.184 2.15.184 13.494 0 20.02-18.052 8.135-18.052-2.08 0-4.56 1.46-6.273 4.45l-5.908 10.174c-2.225-1.167-3.39-3.282-3.39-5.397 0-1.75.802-3.5 2.44-4.776l-1.238-2.227c-2.7 1.934-3.902 4.522-3.902 7.075 0 3.027 1.715 5.944 4.777 7.55l-1.132 1.97c-2.662 4.594-2.188 9.7 3.174 9.7 1.604 0 2.953-.475 4.12-1.205l-.985 1.715c-5.14 1.567-8.314 3.646-8.314 6.49 0 3.647 5.58 4.413 8.314-.255l2.918-4.996c3.94-1.24 7.805-3.938 11.963-8.752a2.306 2.306 0 0 0-.236-.356c1.684-1.98 3.113-3.89 5.97-7.776l.51.62c.476.62.657 1.386.22 2.152l-4.012 6.963c-1.605 2.807-.475 5.395 2.59 5.395 1.906 0 3.988-1.244 6.033-3.036-.045 1.744 1.148 3.035 3.31 3.035 1.532 0 3.43-.984 5.25-2.48.185 1.46 1.353 2.48 3.284 2.48 1.816 0 3.79-1.13 5.742-2.785l-1.4 2.42h3.83l5.798-10.102c5.8-7.257 8.39-6.31 6.746-3.5l-4.922 8.57c-1.604 2.808-.475 5.396 2.588 5.396 2.018 0 4.227-1.388 6.38-3.346-.2 1.9 1.01 3.346 3.296 3.346 1.53 0 3.428-.984 5.252-2.48.182 1.46 1.35 2.48 3.28 2.48 3.138 0 6.747-3.354 9.884-7.002-.257-.506-.913-1.09-1.425-1.307zm-77.962-14.15c1.13-1.934 2.37-2.772 3.43-2.772 6.018 0 1.787 12.253-8.133 12.253h-.766l5.47-9.482zm-8.06 28.59c-.8 1.422-2.077 1.204-2.077.184 0-.986.875-2.116 3.793-3.247l-1.714 3.062zm39.694-13.784c-2.3 3.61-4.56 5.324-6.128 5.324-.84 0-1.312-.583-.438-2.08l5.287-9.226c2.044-3.538 6.09-2.626 4.23.802l-2.95 5.18zm36.7-.22c-2.298 3.757-4.632 5.544-6.235 5.544-.838 0-1.312-.583-.438-2.08l5.287-9.226c2.043-3.538 6.09-2.626 4.23.802h.035l-2.88 4.96zm-117.076 35.563l-.255.293c-2.734 3.172-5.396 5.688-7.074 5.688-.84 0-1.312-.583-.438-2.08l5.47-9.59c1.643-2.88.073-4.96-2.042-4.96-1.642 0-3.354.875-5.25 2.845l1.42-2.48h-3.792l-6.11 10.575a2.637 2.637 0 0 0-.485-.29l-.256.292c-1.712 1.858-3.828 2.77-5.724 2.808l3.573-6.163c2.296-3.976.182-7.73-3.393-7.73-2.918 0-5.178 1.167-7.367 4.96l-1.86 3.245-1.626 2.78a2.385 2.385 0 0 0-.343-.19l-.254.292c-3.137 3.607-5.8 5.94-8.79 7.22l10.396-17.797h-3.793l-6.71 11.67c-2.918 2.698-5.18 4.193-5.908 3.865-.948-.4 0-1.823.474-2.625l7.403-12.91h-3.794l-6.05 10.47c-.114-.07-.228-.142-.333-.187l-.255.293c-2.735 3.17-5.397 5.687-7.075 5.687-.838 0-1.312-.583-.438-2.08l5.47-9.59c1.642-2.88.073-4.96-2.042-4.96-1.64 0-3.355.875-5.25 2.845l1.422-2.48h-3.794l-6.06 10.487a2.545 2.545 0 0 0-.36-.204l-.256.293c-2.734 3.17-5.396 5.687-7.075 5.687-.84 0-1.313-.583-.44-2.08l6.13-10.72h-2.153c.146-1.604-1.495-3.83-3.976-3.83-2.04 0-4.886 1.605-6.49 4.377l-3.917 6.763c-.26-.235-.56-.417-.83-.49l-.256.293c-2.735 3.172-6.09 5.688-9.848 5.688-2.59 0-4.157-2.59-1.897-6.455l1.058-1.86c.694.11 1.388.185 2.152.185 4.048 0 8.644-2.08 11.634-7.295 1.057-1.86 1.53-3.61 1.53-5.104 0-3.43-2.224-5.653-5.03-5.653-2.08 0-4.56 1.46-6.273 4.45l-5.908 10.174c-2.225-1.166-3.393-3.28-3.393-5.396 0-1.75.803-3.5 2.443-4.776l-1.24-2.226c-2.7 1.935-3.902 4.52-3.902 7.075 0 3.026 1.715 5.944 4.777 7.55l-1.13 1.97c-2.66 4.595-1.094 9.7 4.267 9.7 4.242 0 7.354-1.89 9.97-4.373-.827 2.384.373 4.372 3.058 4.372 1.532 0 3.428-.984 5.252-2.48.182 1.46 1.35 2.48 3.28 2.48 1.817 0 3.793-1.13 5.743-2.783l-1.398 2.42h3.83l5.797-10.103c5.798-7.258 8.388-6.31 6.747-3.502l-4.923 8.568c-1.604 2.81-.474 5.396 2.59 5.396 2.04 0 4.28-1.425 6.464-3.423-.455 2.085.508 3.422 2.397 3.422 1.824 0 3.9-1.53 5.616-3.062l-2.078 3.574c-5.142 1.53-8.35 3.646-8.35 6.49 0 3.647 5.58 4.413 8.312-.255l2.917-4.997c3.172-.998 6.298-2.965 9.563-6.195-.523 5.297 6.533 6.505 10.787 1.126h.838c1.385 0 3.26-.523 4.953-1.455l-2.55 4.41h3.83l5.8-10.104c5.798-7.258 8.388-6.31 6.746-3.502l-4.923 8.57c-1.604 2.81-.475 5.397 2.59 5.397 3.137 0 6.746-3.353 9.883-7-.256-.514-.912-1.098-1.423-1.316zm-94.387-14.15c1.13-1.933 2.37-2.77 3.428-2.77 1.423 0 2.08.946 2.08 2.333 0 3.538-4.304 9.92-10.212 9.92h-.766l5.47-9.483zm13.355 14.807c-2.296 3.61-4.558 5.324-6.126 5.324-.838 0-1.312-.583-.438-2.08l5.288-9.226c2.042-3.537 6.09-2.625 4.23.803l-2.953 5.18zm28.852 13.784c-.803 1.423-2.08 1.204-2.08.185 0-.986.913-2.116 3.83-3.247l-1.75 3.06zm25.528-14.184h-.184c-1.24 0-2.225 1.02-2.225 2.262 0 .475.147.91.366 1.275l-.037.073c-1.787 3.062-6.128 2.48-3.866-1.46l2.88-4.995 1.824-3.1c2.663-4.522 6.31-2.735 4.012 1.203l-2.77 4.742zm114.559 1.056c-.218-.583-.874-1.167-1.42-1.312l-.257.293a23.676 23.676 0 0 1-4.56 4.12c1.204-3.61.948-9.153 3.282-14.004l-2.846-1.532c-1.567 2.15-4.997 7.11-8.425 11.123.006.01.016.018.02.025-.015-.007-.03-.02-.046-.025l-.255.293c-2.736 3.172-5.396 5.688-7.076 5.688-.84 0-1.642-.84-1.642-2.553v-1.568c2.662.328 5.47-1.423 7.258-4.52l1.02-1.75c3.536-6.055-2.226-8.062-6.09-4.522l5.395-9.373h-3.792l-10.816 18.767a3.045 3.045 0 0 0-.693-.46l-.257.294c-2.734 3.173-6.236 5.69-8.898 5.69-2.334 0-3.72-1.46-1.97-4.522l3.9-6.783c2.19-3.756 6.056-3.136 3.794.803l-.548.948h3.102l.547-.948c2.042-3.5.073-6.127-3.026-6.127-3.062 0-5.508 1.606-7.11 4.378l-3.733 6.404c-.077-.047-.16-.1-.233-.133l-.256.292c-2.733 3.172-5.395 5.688-7.073 5.688-.84 0-1.312-.583-.438-2.08l8.095-14.185h-3.793l-6.746 11.78c-2.883 2.624-5.105 4.083-5.836 3.755-.947-.4 0-1.823.475-2.625l7.402-12.91h-3.793l-7.365 12.744c-.82.745-1.66 1.412-2.45 1.95 1.203-3.61.947-9.152 3.28-14.003l-2.843-1.532c-1.568 2.15-10.32 13.75-13.75 17.76.327.475.876.95 1.423 1.314 2.15-2.48 9.372-11.78 10.723-13.567-1.496 3.938-.693 11.014-4.305 11.014-1.275 0-1.787-1.387-1.787-1.387l-2.37 1.24s.693 3.062 4.158 3.062c.365 0 .693-.036 1.06-.072.034 0 .07-.036.106-.036 1.928-.255 3.842-1.143 5.63-2.38-.01 1.543.92 2.488 2.51 2.488 2.077 0 4.413-1.896 6.235-3.646-.364 2.043.837 3.646 3.245 3.646 2.355 0 4.98-1.893 7.467-4.38.033 2.52 1.975 4.38 5.145 4.38 3.078 0 6.137-1.72 8.775-4.03l-2.113 3.667h3.83l4.34-7.55v3.025c0 3.245.618 4.887 3.68 4.887 3.138 0 6.75-3.354 9.886-7.002-.006-.01-.018-.02-.02-.034.015.013.03.023.046.034 2.152-2.48 4.05-5.142 5.396-6.93-1.494 3.94-.69 11.015-4.303 11.015-1.275 0-1.787-1.387-1.787-1.387l-2.37 1.24s.692 3.062 4.157 3.062c.363 0 .69-.036 1.06-.072.034 0 .07-.036.106-.036 3.867-.514 7.697-3.576 10.54-6.895zm-25.187-2.99l1.094-1.897c4.377-6.09 7.367-4.413 6.018-2.115l-1.822 3.136c-1.134 1.97-4.452 3.356-5.29.876zm25.041 5.578c-1.24 0-2.19.984-2.19 2.226s.95 2.19 2.19 2.19c1.238 0 2.225-.948 2.225-2.19s-.988-2.225-2.226-2.225zm.182-1.495h3.83l11.887-20.714h-3.79"/></g><path fill="#FFF" d="M80.412 277.58c0 .294-.058.588-.17.88-.112.295-.28.56-.506.797a2.633 2.633 0 0 1-1.93.796c-.45 0-.885-.084-1.302-.253a2.97 2.97 0 0 1-1.064-.73 3.096 3.096 0 0 1-.575-1.05 4.006 4.006 0 0 1-.203-1.284c0-.855.15-1.646.457-2.368a5.982 5.982 0 0 1 1.3-1.928c.25-.248.53-.48.847-.694a9.03 9.03 0 0 1 .896-.54c.28-.147.523-.265.727-.355.203-.09.328-.145.373-.168l1.353 1.996c-.25.09-.524.21-.83.354a4.66 4.66 0 0 0-.86.54c-.27.215-.496.47-.678.762a2.17 2.17 0 0 0-.304 1.016c.653 0 1.23.19 1.725.575.494.383.742.935.742 1.656zm7.866 0c0 .294-.057.588-.17.88-.112.293-.28.56-.506.796-.227.236-.502.43-.83.574-.327.147-.693.22-1.1.22-.45 0-.885-.083-1.302-.252a2.923 2.923 0 0 1-1.065-.728c-.248-.293-.44-.643-.574-1.05s-.202-.833-.202-1.284c0-.855.152-1.646.457-2.368a6.004 6.004 0 0 1 1.302-1.928c.248-.248.528-.48.847-.693.314-.214.613-.394.896-.54.282-.147.524-.266.728-.355s.327-.146.372-.17l1.353 1.997c-.248.09-.523.208-.828.353-.305.147-.592.327-.863.54s-.496.47-.676.762a2.134 2.134 0 0 0-.305 1.016c.654 0 1.23.192 1.726.576.494.382.742.934.742 1.655zm265.162 58.943c0-.294.056-.588.167-.88.113-.294.283-.56.508-.795a2.59 2.59 0 0 1 .828-.575 2.67 2.67 0 0 1 1.1-.22c.45 0 .887.085 1.303.253.418.17.77.412 1.064.73.25.292.44.643.576 1.047.135.406.203.834.203 1.286 0 .854-.153 1.645-.458 2.366s-.738 1.364-1.303 1.928c-.25.248-.53.48-.85.693-.31.215-.61.395-.894.54-.28.147-.523.267-.73.356-.202.09-.323.146-.37.17l-1.354-1.996a9.6 9.6 0 0 0 .828-.355 4.63 4.63 0 0 0 .863-.54c.27-.216.496-.47.676-.763.18-.294.282-.632.304-1.015-.654 0-1.23-.192-1.725-.576-.493-.383-.74-.937-.74-1.657zm-7.868 0c0-.294.057-.588.17-.88.113-.294.28-.56.506-.795.227-.237.504-.43.83-.575.326-.146.693-.22 1.1-.22.45 0 .885.085 1.303.253.417.17.772.412 1.065.73.248.292.44.643.574 1.047.136.406.202.834.202 1.286a6.02 6.02 0 0 1-.457 2.366 6.004 6.004 0 0 1-1.3 1.928c-.25.248-.53.48-.847.693a9.107 9.107 0 0 1-.896.54c-.28.147-.523.267-.73.356a8.94 8.94 0 0 0-.37.17l-1.355-1.996c.25-.09.525-.21.83-.355.305-.146.592-.327.86-.54.272-.216.497-.47.68-.763.18-.294.28-.632.304-1.015-.65 0-1.228-.192-1.726-.576-.494-.383-.742-.937-.742-1.657z"/></svg>